<svg width="56" height="13" viewBox="0 0 56 13" fill="none" xmlns="http://www.w3.org/2000/svg">
<path d="M8.66667 0.649997C8.125 0.649997 7.69167 1.08333 7.69167 1.625C7.69167 2.16666 8.125 2.6 8.66667 2.6C9.20833 2.6 9.64167 2.16666 9.64167 1.625C9.64167 1.08333 9.20833 0.649997 8.66667 0.649997ZM6.71667 2.22083C6.46208 2.22083 6.22917 2.32375 6.06667 2.49166L4.0625 4.49041C3.89458 4.65833 3.79167 4.875 3.79167 5.14583C3.79167 5.48708 3.97042 5.77416 4.25208 5.94208L6.06667 7.04166V9.75H7.04167V6.22916L5.82292 5.33541L7.07958 4.0625L8.01667 5.41666H10.2917V4.44166H8.55833L7.5075 2.67041C7.35042 2.39958 7.04167 2.22083 6.71667 2.22083ZM5.41667 1.625H1.625C1.32708 1.625 1.08333 1.38125 1.08333 1.08333C1.08333 0.785414 1.32708 0.541664 1.625 0.541664H6.92792C6.81417 0.725831 6.72208 0.926247 6.67333 1.14291C6.2075 1.15375 5.76875 1.32708 5.41667 1.625ZM2.70833 6.5C1.21333 6.5 0 7.71333 0 9.20833C0 10.7033 1.21333 11.9167 2.70833 11.9167C4.20333 11.9167 5.41667 10.7033 5.41667 9.20833C5.41667 7.71333 4.20333 6.5 2.70833 6.5ZM2.70833 11.1042C1.66292 11.1042 0.8125 10.2537 0.8125 9.20833C0.8125 8.16291 1.66292 7.3125 2.70833 7.3125C3.75375 7.3125 4.60417 8.16291 4.60417 9.20833C4.60417 10.2537 3.75375 11.1042 2.70833 11.1042ZM10.2917 6.5C8.79667 6.5 7.58333 7.71333 7.58333 9.20833C7.58333 10.7033 8.79667 11.9167 10.2917 11.9167C11.7867 11.9167 13 10.7033 13 9.20833C13 7.71333 11.7867 6.5 10.2917 6.5ZM10.2917 11.1042C9.24625 11.1042 8.39583 10.2537 8.39583 9.20833C8.39583 8.16291 9.24625 7.3125 10.2917 7.3125C11.3371 7.3125 12.1875 8.16291 12.1875 9.20833C12.1875 10.2537 11.3371 11.1042 10.2917 11.1042ZM2.88167 5.95833H0.541667C0.242667 5.95833 0 5.71458 0 5.41666C0 5.11875 0.242667 4.875 0.541667 4.875H2.73542C2.72458 4.96166 2.70833 5.05375 2.70833 5.14583C2.70833 5.43291 2.77333 5.70916 2.88167 5.95833ZM3.25 3.79166H1.08333C0.785417 3.79166 0.541667 3.54791 0.541667 3.25C0.541667 2.95208 0.785417 2.70833 1.08333 2.70833H4.31708L3.29875 3.72125C3.27708 3.74291 3.25 3.77 3.25 3.79166Z" fill="#5A5A5A"/>
<path d="M17.3 10L18.54 3H20.48C21.2733 3 21.9067 3.14 22.38 3.42C22.8533 3.69333 23.1767 4.08333 23.35 4.59C23.5233 5.09667 23.5567 5.70333 23.45 6.41C23.37 6.96333 23.22 7.46 23 7.9C22.7867 8.33333 22.5033 8.71 22.15 9.03C21.7967 9.34333 21.3767 9.58333 20.89 9.75C20.41 9.91667 19.86 10 19.24 10H17.3ZM18.45 9.16H19.36C20 9.16 20.53 9.05 20.95 8.83C21.3767 8.61 21.7067 8.29667 21.94 7.89C22.18 7.47667 22.34 6.98667 22.42 6.42C22.5067 5.88 22.4967 5.42 22.39 5.04C22.29 4.65333 22.07 4.35667 21.73 4.15C21.39 3.94333 20.91 3.84 20.29 3.84H19.38L18.45 9.16ZM26.2376 10.12C25.7709 10.12 25.3742 10.01 25.0476 9.79C24.7276 9.57 24.4976 9.26333 24.3576 8.87C24.2176 8.47 24.1876 8.00667 24.2676 7.48C24.3276 7.06667 24.4409 6.69 24.6076 6.35C24.7809 6.00333 24.9976 5.70333 25.2576 5.45C25.5242 5.19667 25.8209 5.00333 26.1476 4.87C26.4742 4.73 26.8276 4.66 27.2076 4.66C27.7076 4.66 28.1109 4.77 28.4176 4.99C28.7242 5.21 28.9376 5.50667 29.0576 5.88C29.1776 6.24667 29.2009 6.65667 29.1276 7.11C29.1209 7.18333 29.1076 7.26333 29.0876 7.35C29.0742 7.43667 29.0576 7.53 29.0376 7.63H24.9676L25.0876 6.92H28.1776C28.2242 6.61333 28.2042 6.35333 28.1176 6.14C28.0309 5.92667 27.8976 5.76667 27.7176 5.66C27.5376 5.54667 27.3176 5.49 27.0576 5.49C26.7909 5.49 26.5342 5.55667 26.2876 5.69C26.0476 5.81667 25.8376 6.00667 25.6576 6.26C25.4842 6.50667 25.3609 6.82 25.2876 7.2L25.2376 7.48C25.1709 7.86667 25.1776 8.19667 25.2576 8.47C25.3442 8.73667 25.4842 8.94 25.6776 9.08C25.8776 9.22 26.1109 9.29 26.3776 9.29C26.7176 9.29 26.9942 9.22667 27.2076 9.1C27.4276 8.96667 27.6076 8.78333 27.7476 8.55H28.7476C28.6076 8.85 28.4142 9.12 28.1676 9.36C27.9276 9.59333 27.6442 9.78 27.3176 9.92C26.9909 10.0533 26.6309 10.12 26.2376 10.12ZM29.7988 10L31.0588 2.8H32.0588L30.7988 10H29.7988ZM32.2709 10L33.1909 4.78H34.1909L33.2709 10H32.2709ZM33.9609 3.89C33.7676 3.89 33.6076 3.83 33.4809 3.71C33.3609 3.59 33.3009 3.43667 33.3009 3.25C33.3009 3.07 33.3609 2.92333 33.4809 2.81C33.6076 2.69 33.7676 2.63 33.9609 2.63C34.1476 2.63 34.3043 2.69 34.4309 2.81C34.5576 2.92333 34.6209 3.07 34.6209 3.25C34.6209 3.43667 34.5576 3.59 34.4309 3.71C34.3043 3.83 34.1476 3.89 33.9609 3.89ZM36.2202 10L35.1702 4.78H36.2202L36.9902 9.05L39.2502 4.78H40.2802L37.4102 10H36.2202ZM42.4876 10.12C42.0209 10.12 41.6242 10.01 41.2976 9.79C40.9776 9.57 40.7476 9.26333 40.6076 8.87C40.4676 8.47 40.4376 8.00667 40.5176 7.48C40.5776 7.06667 40.6909 6.69 40.8576 6.35C41.0309 6.00333 41.2476 5.70333 41.5076 5.45C41.7742 5.19667 42.0709 5.00333 42.3976 4.87C42.7242 4.73 43.0776 4.66 43.4576 4.66C43.9576 4.66 44.3609 4.77 44.6676 4.99C44.9742 5.21 45.1876 5.50667 45.3076 5.88C45.4276 6.24667 45.4509 6.65667 45.3776 7.11C45.3709 7.18333 45.3576 7.26333 45.3376 7.35C45.3242 7.43667 45.3076 7.53 45.2876 7.63H41.2176L41.3376 6.92H44.4276C44.4742 6.61333 44.4542 6.35333 44.3676 6.14C44.2809 5.92667 44.1476 5.76667 43.9676 5.66C43.7876 5.54667 43.5676 5.49 43.3076 5.49C43.0409 5.49 42.7842 5.55667 42.5376 5.69C42.2976 5.81667 42.0876 6.00667 41.9076 6.26C41.7342 6.50667 41.6109 6.82 41.5376 7.2L41.4876 7.48C41.4209 7.86667 41.4276 8.19667 41.5076 8.47C41.5942 8.73667 41.7342 8.94 41.9276 9.08C42.1276 9.22 42.3609 9.29 42.6276 9.29C42.9676 9.29 43.2442 9.22667 43.4576 9.1C43.6776 8.96667 43.8576 8.78333 43.9976 8.55H44.9976C44.8576 8.85 44.6642 9.12 44.4176 9.36C44.1776 9.59333 43.8942 9.78 43.5676 9.92C43.2409 10.0533 42.8809 10.12 42.4876 10.12ZM46.0388 10L46.9588 4.78H47.8588L47.7688 5.72C47.9288 5.48667 48.1188 5.29333 48.3388 5.14C48.5655 4.98667 48.8188 4.87 49.0988 4.79C49.3788 4.70333 49.6822 4.66 50.0088 4.66L49.8288 5.72H49.2988C49.0988 5.72 48.9022 5.74333 48.7088 5.79C48.5222 5.83667 48.3488 5.91667 48.1888 6.03C48.0355 6.14333 47.8988 6.3 47.7788 6.5C47.6655 6.69333 47.5822 6.93667 47.5288 7.23L47.0388 10H46.0388ZM50.263 12.2L51.923 9.46H51.623L50.473 4.78H51.493L52.423 8.65L54.703 4.78H55.753L51.293 12.2H50.263Z" fill="#5A5A5A"/>
</svg>
