<svg width="13" height="16" viewBox="0 0 13 16" fill="none" xmlns="http://www.w3.org/2000/svg">
<path d="M6.0186 9.67212C4.49481 9.67212 3.25549 10.815 3.25549 12.22V12.2621C3.25549 13.0017 3.90607 13.536 4.80155 13.536H7.26286C8.14102 13.536 8.77923 12.9992 8.77923 12.2621V12.22C8.77923 10.815 7.53992 9.67212 6.0186 9.67212Z" fill="#02172C"/>
<path d="M4.61584 7.76244C4.76673 7.74265 4.86815 7.64865 4.92752 7.57197C5.05368 7.40871 5.11057 7.17618 5.07842 6.93376C5.02894 6.54539 4.75436 6.24113 4.46742 6.24113C4.4501 6.24113 4.43278 6.24113 4.41794 6.2436C4.26705 6.26339 4.16563 6.35739 4.10626 6.43407C3.9801 6.59734 3.9232 6.82986 3.95536 7.07229C4.00731 7.48539 4.3091 7.80202 4.61584 7.76244Z" fill="#02172C"/>
<path d="M2.18919 7.87622C2.10756 7.83664 1.98388 7.80201 1.85277 7.84901C1.57077 7.95043 1.44956 8.37838 1.58809 8.77911C1.66972 9.01659 1.82803 9.20954 2.01356 9.29859C2.09519 9.33817 2.21888 9.3728 2.34998 9.3258C2.63198 9.22438 2.75319 8.79643 2.61714 8.39569C2.53551 8.15822 2.37472 7.96527 2.18919 7.87622Z" fill="#02172C"/>
<path d="M7.51012 7.76243C7.81686 7.80695 8.12359 7.49774 8.18544 7.08711C8.22254 6.84716 8.1706 6.61216 8.04691 6.44395C7.99002 6.36727 7.88859 6.26832 7.74017 6.24853C7.72038 6.24606 7.70059 6.24358 7.6808 6.24358C7.39633 6.24358 7.12175 6.54043 7.06486 6.92385C7.02775 7.16379 7.0797 7.3988 7.20338 7.56701C7.26028 7.64369 7.3617 7.74016 7.51012 7.76243Z" fill="#02172C"/>
<path d="M5.99621 0L0 5.15516C0.00989474 5.18485 0.0173158 5.217 0.0173158 5.24916V15.8217H12.0196V5.08342L5.99621 0ZM6.50085 6.83727C6.60969 6.10753 7.20585 5.59053 7.82427 5.67958C8.09142 5.71916 8.33385 5.86758 8.507 6.10011C8.71974 6.38953 8.80879 6.7779 8.7519 7.16874C8.65048 7.84158 8.13595 8.33632 7.56948 8.33632C7.52248 8.33632 7.47548 8.33385 7.42848 8.32643C7.16132 8.28685 6.9189 8.13843 6.74574 7.9059C6.53053 7.61895 6.44148 7.22811 6.50085 6.83727ZM3.65363 6.08774C3.83174 5.85769 4.07663 5.71421 4.34626 5.67958C4.96963 5.60042 5.55095 6.13227 5.64742 6.862C5.6969 7.25285 5.60042 7.63874 5.38027 7.92322C5.20216 8.15327 4.95727 8.29674 4.68763 8.33137C4.64558 8.33632 4.606 8.33879 4.56642 8.33879C3.99253 8.33879 3.47553 7.83169 3.38895 7.14895C3.337 6.75811 3.43348 6.36974 3.65363 6.08774ZM2.22137 9.91948C2.068 9.91948 1.91463 9.88485 1.76621 9.81311C1.43968 9.65727 1.17747 9.34806 1.04637 8.96216C0.806421 8.25964 1.081 7.51753 1.65737 7.30974C1.90474 7.22069 2.18179 7.238 2.43411 7.35922C2.76063 7.51506 3.02284 7.82427 3.15395 8.21016C3.3939 8.91269 3.11932 9.6548 2.54295 9.86506C2.44153 9.90216 2.33269 9.91948 2.22137 9.91948ZM9.35053 12.2621C9.35053 13.3307 8.47237 14.1074 7.26274 14.1074H4.80142C3.59426 14.1074 2.68395 13.3134 2.68395 12.2621V12.22C2.68395 10.5008 4.18053 9.10069 6.01848 9.10069C7.85642 9.10069 9.353 10.5008 9.353 12.22V12.2621H9.35053ZM11.2256 8.96464C11.0945 9.34806 10.8323 9.65974 10.5057 9.81559C10.3573 9.88485 10.204 9.92195 10.0506 9.92195C9.93927 9.92195 9.83043 9.90216 9.72653 9.86506C9.14769 9.6548 8.87311 8.91269 9.11553 8.21016C9.24664 7.82674 9.50885 7.51506 9.83537 7.35922C10.0902 7.238 10.3647 7.22069 10.6121 7.30974C11.191 7.52 11.4655 8.26211 11.2256 8.96464Z" fill="#02172C"/>
<path d="M10.4194 7.84901C10.3749 7.83417 10.3328 7.82675 10.2908 7.82675C10.2091 7.82675 10.1374 7.85149 10.083 7.87623C9.89744 7.96528 9.73665 8.1607 9.65749 8.3957C9.51896 8.79891 9.64017 9.22438 9.92465 9.32581C10.0558 9.37281 10.1794 9.3357 10.2611 9.29859C10.4466 9.20954 10.6074 9.01412 10.6865 8.77912C10.8226 8.37591 10.7014 7.95044 10.4194 7.84901Z" fill="#02172C"/>
</svg>
