<svg width="11" height="14" viewBox="0 0 11 14" fill="none" xmlns="http://www.w3.org/2000/svg">
<path d="M5.25 0C2.33242 0 0 2.33242 0 5.25C0 6.25898 0.300781 7.03828 0.823047 7.82852L4.69766 13.7074C4.81523 13.8852 5.01758 14 5.25 14C5.48242 14 5.6875 13.8824 5.80234 13.7074L9.67695 7.82852C10.1992 7.03828 10.5 6.25898 10.5 5.25C10.5 2.33242 8.16758 0 5.25 0ZM5.25 8.16484C3.63945 8.16484 2.33242 6.85781 2.33242 5.24453C2.33242 3.63125 3.63945 2.32422 5.25 2.32422C6.86055 2.32422 8.16758 3.63125 8.16758 5.24453C8.16758 6.85781 6.86055 8.16484 5.25 8.16484Z" fill="black"/>
</svg>
