<svg width="10" height="13" viewBox="0 0 10 13" fill="none" xmlns="http://www.w3.org/2000/svg">
<path d="M9.30005 5.20909C9.30005 9.02727 4.80005 12.3 4.80005 12.3C4.80005 12.3 0.300049 9.02727 0.300049 5.20909C0.300049 3.90712 0.774155 2.65847 1.61807 1.73784C2.46198 0.817205 3.60657 0.299999 4.80005 0.299999C5.99352 0.299999 7.13812 0.817205 7.98203 1.73784C8.82594 2.65847 9.30005 3.90712 9.30005 5.20909Z" stroke="#929292" stroke-width="0.6" stroke-linecap="round" stroke-linejoin="round"/>
<path d="M4.80005 6.84545C5.62848 6.84545 6.30005 6.11283 6.30005 5.20909C6.30005 4.30535 5.62848 3.57273 4.80005 3.57273C3.97162 3.57273 3.30005 4.30535 3.30005 5.20909C3.30005 6.11283 3.97162 6.84545 4.80005 6.84545Z" stroke="#929292" stroke-width="0.6" stroke-linecap="round" stroke-linejoin="round"/>
</svg>
