<svg width="15" height="15" viewBox="0 0 15 15" fill="none" xmlns="http://www.w3.org/2000/svg">
<path d="M7.2 9.9C7.91608 9.9 8.60284 9.61554 9.10919 9.10919C9.61554 8.60284 9.9 7.91608 9.9 7.2C9.9 6.48391 9.61554 5.79716 9.10919 5.29081C8.60284 4.78446 7.91608 4.5 7.2 4.5C6.48391 4.5 5.79716 4.78446 5.29081 5.29081C4.78446 5.79716 4.5 6.48391 4.5 7.2C4.5 7.91608 4.78446 8.60284 5.29081 9.10919C5.79716 9.61554 6.48391 9.9 7.2 9.9ZM7.65 0.45C7.65 0.330653 7.60259 0.216193 7.5182 0.131802C7.43381 0.0474107 7.31935 0 7.2 0C7.08065 0 6.96619 0.0474107 6.8818 0.131802C6.79741 0.216193 6.75 0.330653 6.75 0.45V1.818C5.4775 1.92424 4.28382 2.47798 3.3809 3.3809C2.47798 4.28382 1.92424 5.4775 1.818 6.75H0.45C0.330653 6.75 0.216193 6.79741 0.131802 6.8818C0.0474107 6.96619 0 7.08065 0 7.2C0 7.31935 0.0474107 7.43381 0.131802 7.5182C0.216193 7.60259 0.330653 7.65 0.45 7.65H1.818C1.92424 8.9225 2.47798 10.1162 3.3809 11.0191C4.28382 11.922 5.4775 12.4758 6.75 12.582V13.95C6.75 14.0693 6.79741 14.1838 6.8818 14.2682C6.96619 14.3526 7.08065 14.4 7.2 14.4C7.31935 14.4 7.43381 14.3526 7.5182 14.2682C7.60259 14.1838 7.65 14.0693 7.65 13.95V12.582C8.9225 12.4758 10.1162 11.922 11.0191 11.0191C11.922 10.1162 12.4758 8.9225 12.582 7.65H13.95C14.0693 7.65 14.1838 7.60259 14.2682 7.5182C14.3526 7.43381 14.4 7.31935 14.4 7.2C14.4 7.08065 14.3526 6.96619 14.2682 6.8818C14.1838 6.79741 14.0693 6.75 13.95 6.75H12.582C12.4758 5.4775 11.922 4.28382 11.0191 3.3809C10.1162 2.47798 8.9225 1.92424 7.65 1.818V0.45ZM7.2 11.7C6.00653 11.7 4.86193 11.2259 4.01802 10.382C3.17411 9.53807 2.7 8.39347 2.7 7.2C2.7 6.00653 3.17411 4.86193 4.01802 4.01802C4.86193 3.17411 6.00653 2.7 7.2 2.7C8.39347 2.7 9.53807 3.17411 10.382 4.01802C11.2259 4.86193 11.7 6.00653 11.7 7.2C11.7 8.39347 11.2259 9.53807 10.382 10.382C9.53807 11.2259 8.39347 11.7 7.2 11.7Z" fill="#262526"/>
</svg>
