<svg width="11" height="11" viewBox="0 0 11 11" fill="none" xmlns="http://www.w3.org/2000/svg">
<path d="M6.81053 10.515H6.77553C6.64714 10.5072 6.52491 10.4573 6.42786 10.3729C6.3308 10.2885 6.26436 10.1744 6.23887 10.0483L5.34053 5.63249C5.31767 5.52038 5.26234 5.41748 5.18144 5.33658C5.10054 5.25568 4.99764 5.20035 4.88553 5.17749L0.469699 4.27916C0.34339 4.25407 0.228932 4.18789 0.144173 4.09094C0.059413 3.994 0.00911609 3.87172 0.00112472 3.7432C-0.00686664 3.61467 0.0278968 3.48711 0.0999943 3.38041C0.172092 3.27371 0.277471 3.19386 0.399699 3.15332L9.73303 0.0441553C9.8378 0.000897098 9.9529 -0.010903 10.0643 0.0101976C10.1756 0.0312982 10.2784 0.0843853 10.3601 0.16297C10.4418 0.241555 10.4988 0.342233 10.5242 0.452699C10.5496 0.563164 10.5422 0.678632 10.503 0.784989L7.39387 10.1183C7.35328 10.2391 7.27428 10.3432 7.16895 10.4148C7.06362 10.4864 6.93774 10.5216 6.81053 10.515Z" fill="black"/>
</svg>
