<svg width="14" height="14" viewBox="0 0 14 14" fill="none" xmlns="http://www.w3.org/2000/svg">
<path d="M11.3333 1.94004C10.722 1.32277 9.99402 0.833347 9.19167 0.500278C8.38933 0.167208 7.52872 -0.00284211 6.66 3.59301e-05C3.02 3.59301e-05 0.0533334 2.9667 0.0533334 6.6067C0.0533334 7.77337 0.36 8.9067 0.933333 9.9067L0 13.3334L3.5 12.4134C4.46667 12.94 5.55333 13.22 6.66 13.22C10.3 13.22 13.2667 10.2534 13.2667 6.61337C13.2667 4.8467 12.58 3.1867 11.3333 1.94004ZM6.66 12.1C5.67333 12.1 4.70667 11.8334 3.86 11.3334L3.66 11.2134L1.58 11.76L2.13333 9.73337L2 9.5267C1.4517 8.65141 1.16062 7.63955 1.16 6.6067C1.16 3.58004 3.62667 1.11337 6.65333 1.11337C8.12 1.11337 9.5 1.6867 10.5333 2.7267C11.0451 3.23594 11.4506 3.84173 11.7264 4.50892C12.0022 5.17611 12.1428 5.89143 12.14 6.61337C12.1533 9.64004 9.68667 12.1 6.66 12.1ZM9.67333 7.99337C9.50667 7.91337 8.69333 7.51337 8.54667 7.45337C8.39333 7.40004 8.28667 7.37337 8.17333 7.53337C8.06 7.70004 7.74667 8.07337 7.65333 8.18004C7.56 8.29337 7.46 8.3067 7.29333 8.22004C7.12667 8.14004 6.59333 7.96004 5.96667 7.40004C5.47333 6.96004 5.14667 6.42004 5.04667 6.25337C4.95333 6.0867 5.03333 6.00004 5.12 5.91337C5.19333 5.84004 5.28667 5.72004 5.36667 5.6267C5.44667 5.53337 5.48 5.46004 5.53333 5.35337C5.58667 5.24004 5.56 5.1467 5.52 5.0667C5.48 4.9867 5.14667 4.17337 5.01333 3.84004C4.88 3.52004 4.74 3.56004 4.64 3.55337H4.32C4.20667 3.55337 4.03333 3.59337 3.88 3.76004C3.73333 3.9267 3.30667 4.3267 3.30667 5.14004C3.30667 5.95337 3.9 6.74004 3.98 6.8467C4.06 6.96004 5.14667 8.6267 6.8 9.34004C7.19333 9.51337 7.5 9.61337 7.74 9.6867C8.13333 9.81337 8.49333 9.79337 8.78 9.75337C9.1 9.7067 9.76 9.35337 9.89333 8.9667C10.0333 8.58004 10.0333 8.25337 9.98667 8.18004C9.94 8.1067 9.84 8.07337 9.67333 7.99337Z" fill="white"/>
</svg>
